<svg xmlns="http://www.w3.org/2000/svg" viewBox="0 0 1200 675" role="img" aria-labelledby="title desc">
  <title id="title">Compassion in Buddhism illustration</title>
  <desc id="desc">Two simple hands holding a small lotus in calm warm colors.</desc>
  <rect width="1200" height="675" fill="#fff7e8"/>
  <circle cx="600" cy="250" r="165" fill="#edf1df"/>
  <path d="M365 470 C455 420 515 418 585 475" fill="none" stroke="#8f6a3e" stroke-width="34" stroke-linecap="round"/>
  <path d="M835 470 C745 420 685 418 615 475" fill="none" stroke="#8f6a3e" stroke-width="34" stroke-linecap="round"/>
  <g transform="translate(600 370)">
    <path d="M0 -105 C-45 -50 -45 8 0 54 C45 8 45 -50 0 -105 Z" fill="#d9a441"/>
    <path d="M-26 -70 C-92 -28 -102 35 -40 82 C7 30 12 -25 -26 -70 Z" fill="#c58b35"/>
    <path d="M26 -70 C92 -28 102 35 40 82 C-7 30 -12 -25 26 -70 Z" fill="#c58b35"/>
  </g>
  <path d="M0 560 C260 508 470 535 635 565 C835 603 1010 532 1200 565 L1200 675 L0 675 Z" fill="#dfe8d3"/>
</svg>
